<?xml version="1.0" encoding="utf-8"?>
<!-- Generator: Adobe Illustrator 26.3.1, SVG Export Plug-In . SVG Version: 6.00 Build 0)  -->
<svg version="1.1" id="Layer_1" xmlns="http://www.w3.org/2000/svg" xmlns:xlink="http://www.w3.org/1999/xlink" x="0px" y="0px"
	 viewBox="0 0 883.8 296" style="enable-background:new 0 0 883.8 296;" xml:space="preserve">
<style type="text/css">
	.st0{fill:#FFFFFF;}
	.st1{fill:#E42527;}
	.st2{fill:#089949;}
	.st3{fill:#226DB4;}
	.st4{fill:#F9B21D;}
</style>
<g>
	<g>
		<path d="M372.1,221.07c1.2,3.3,2.8,6.17,4.79,8.63c1.99,2.46,4.29,4.53,6.91,6.2c2.62,1.68,5.49,2.93,8.63,3.77
			s6.46,1.25,9.97,1.25c2.67,0,5.3-0.35,7.89-1.06c2.59-0.71,4.9-1.78,6.94-3.22c2.04-1.44,3.7-3.27,4.98-5.49
			c1.28-2.22,1.92-4.83,1.92-7.81c0-3.19-0.73-5.78-2.2-7.77c-1.47-1.99-3.41-3.6-5.85-4.83s-5.25-2.2-8.44-2.9
			c-3.19-0.71-6.54-1.37-10.04-2c-4.45-0.78-8.89-1.74-13.34-2.86c-4.45-1.12-8.45-2.84-12.01-5.14c-3.56-2.3-6.45-5.47-8.67-9.5
			c-2.22-4.03-3.33-9.34-3.33-15.93c0-5.49,1.14-10.32,3.41-14.48c2.28-4.16,5.27-7.64,8.98-10.44c3.71-2.8,7.94-4.89,12.67-6.28
			c4.73-1.39,9.59-2.08,14.56-2.08c4.6,0,9.02,0.48,13.26,1.45c4.24,0.97,8.17,2.49,11.81,4.55c3.64,2.07,6.88,4.7,9.73,7.89
			c2.85,3.19,5.17,7.04,6.95,11.54l-16.32,7.38c-2.46-5.07-5.89-9.05-10.28-11.93c-4.39-2.88-9.52-4.32-15.38-4.32
			c-2.35,0-4.64,0.26-6.87,0.79c-2.22,0.52-4.21,1.39-5.96,2.59c-1.75,1.2-3.17,2.76-4.24,4.67c-1.07,1.91-1.61,4.28-1.61,7.1
			c0,3.09,0.68,5.6,2.04,7.53c1.36,1.94,3.2,3.51,5.53,4.71c2.33,1.2,5.04,2.16,8.12,2.86c3.09,0.71,6.38,1.37,9.89,2
			c3.03,0.52,6.08,1.1,9.14,1.73s6.03,1.45,8.91,2.47c2.88,1.02,5.57,2.29,8.08,3.81c2.51,1.52,4.71,3.43,6.59,5.73
			c1.88,2.3,3.36,5.09,4.43,8.36c1.07,3.27,1.61,7.13,1.61,11.58c0,5.81-1.24,10.93-3.73,15.38c-2.49,4.45-5.74,8.17-9.77,11.18
			c-4.03,3.01-8.62,5.27-13.77,6.79c-5.15,1.52-10.37,2.28-15.66,2.28c-5.18,0-10.27-0.5-15.26-1.49c-5-0.99-9.64-2.62-13.93-4.87
			c-4.29-2.25-8.04-5.2-11.26-8.87c-3.22-3.66-5.61-8.16-7.18-13.5L372.1,221.07z"/>
		<path d="M518.21,242.5c-1.31,2.56-2.94,4.77-4.9,6.63c-1.96,1.86-4.15,3.39-6.55,4.59c-2.41,1.2-4.98,2.09-7.73,2.67
			c-2.75,0.58-5.58,0.86-8.51,0.86c-4.81,0-9.06-0.76-12.75-2.28c-3.69-1.52-6.78-3.67-9.26-6.47c-2.49-2.8-4.36-6.15-5.61-10.04
			c-1.26-3.9-1.88-8.23-1.88-12.99v-53.83h20.09v51.4c0,5.76,1.36,10.28,4.08,13.58c2.72,3.3,7.01,4.94,12.87,4.94
			c3.14,0,5.95-0.48,8.44-1.45c2.48-0.97,4.6-2.33,6.36-4.08c1.75-1.75,3.09-3.87,4-6.36c0.92-2.48,1.37-5.22,1.37-8.2v-49.83h20.01
			v84.04h-20.01V242.5z"/>
		<path d="M560.27,171.64h20.09v15.77c2.83-5.81,6.53-10.1,11.1-12.87c4.58-2.77,10.08-4.16,16.52-4.16v18.6
			c-4.08,0-7.81,0.37-11.18,1.1c-3.38,0.73-6.28,2-8.71,3.81s-4.33,4.2-5.69,7.18c-1.36,2.98-2.04,6.72-2.04,11.22v43.4h-20.09
			V171.64z"/>
		<path d="M615.75,171.64h21.5l21.74,63.64l21.5-63.64h19.62l-30.29,84.04h-23.54L615.75,171.64z"/>
		<path d="M784.39,237.39c-1.73,3.72-3.94,6.84-6.63,9.38c-2.69,2.54-5.68,4.58-8.95,6.12c-3.27,1.54-6.78,2.66-10.52,3.33
			c-3.74,0.68-7.55,1.02-11.42,1.02c-6.64,0-12.63-1.06-17.97-3.18c-5.34-2.12-9.88-5.1-13.62-8.95c-3.74-3.84-6.62-8.46-8.63-13.85
			c-2.01-5.39-3.02-11.35-3.02-17.89c0-6.17,1.02-11.91,3.06-17.22c2.04-5.31,4.92-9.91,8.63-13.81c3.71-3.9,8.16-6.96,13.34-9.18
			c5.18-2.22,10.93-3.33,17.26-3.33c13.6,0,23.74,3.99,30.41,11.97c6.67,7.98,10,20.08,10,36.29h-62.23c0,3.56,0.51,6.84,1.53,9.85
			c1.02,3.01,2.52,5.6,4.51,7.77c1.99,2.17,4.45,3.87,7.38,5.1c2.93,1.23,6.3,1.84,10.12,1.84c4.6,0,8.71-0.97,12.32-2.9
			c3.61-1.93,6.51-5.05,8.71-9.34L784.39,237.39z M766.34,204.91c-0.31-6.38-2.26-11.39-5.85-15.03c-3.58-3.64-8.36-5.45-14.32-5.45
			c-3.14,0-5.96,0.52-8.47,1.57c-2.51,1.05-4.67,2.49-6.47,4.32c-1.8,1.83-3.28,3.99-4.43,6.47c-1.15,2.49-1.94,5.19-2.35,8.12
			H766.34z"/>
		<path d="M826.53,247.13l-32.96-75.49h21.5l22.05,53.67l20.56-53.67h19.54L831,284.48h-19.7L826.53,247.13z"/>
	</g>
	<g>
		<g>
			<path d="M363.39,104.43l36.97-53.42h-33.23V40.47h50.63v5.25l-36.07,53.42h35.03v10.54h-53.32V104.43z"/>
			<path d="M421.11,84.48c0-3.97,0.76-7.59,2.29-10.85c1.53-3.26,3.58-6.05,6.17-8.37c2.58-2.32,5.58-4.11,9-5.39
				c3.42-1.28,7.04-1.91,10.85-1.91c3.84,0,7.42,0.64,10.73,1.91c3.31,1.28,6.18,3.07,8.63,5.39s4.36,5.09,5.74,8.32
				c1.39,3.23,2.08,6.78,2.08,10.66c0,3.97-0.73,7.58-2.17,10.83c-1.45,3.25-3.43,6.02-5.93,8.32c-2.51,2.3-5.44,4.08-8.82,5.34
				c-3.37,1.26-6.97,1.89-10.78,1.89c-3.84,0-7.46-0.64-10.85-1.91c-3.39-1.28-6.33-3.06-8.84-5.37c-2.51-2.3-4.48-5.05-5.93-8.25
				C421.83,91.89,421.11,88.35,421.11,84.48z M449.24,101.3c2.52,0,4.69-0.47,6.5-1.42c1.81-0.95,3.3-2.2,4.47-3.76
				c1.17-1.56,2.03-3.36,2.58-5.41c0.55-2.05,0.83-4.18,0.83-6.38c0-2.33-0.3-4.53-0.9-6.59c-0.6-2.06-1.51-3.88-2.72-5.44
				c-1.21-1.56-2.73-2.79-4.56-3.69c-1.83-0.9-3.99-1.35-6.48-1.35c-2.55,0-4.74,0.47-6.55,1.42c-1.81,0.95-3.29,2.21-4.42,3.81
				c-1.13,1.59-1.97,3.44-2.5,5.53c-0.54,2.1-0.8,4.31-0.8,6.64c0,2.24,0.3,4.37,0.9,6.38s1.5,3.78,2.72,5.29
				c1.21,1.51,2.73,2.72,4.54,3.62C444.64,100.86,446.78,101.3,449.24,101.3z"/>
			<path d="M485.45,36.12h12.1v30.96c0.82-1.58,1.83-2.94,3.05-4.09c1.21-1.15,2.55-2.1,4.02-2.84c1.46-0.74,3.04-1.29,4.73-1.65
				c1.69-0.36,3.4-0.54,5.13-0.54c3.03,0,5.67,0.5,7.94,1.51c2.27,1.01,4.16,2.4,5.67,4.18c1.51,1.78,2.65,3.89,3.4,6.33
				c0.76,2.44,1.13,5.11,1.13,8.01v31.67h-12.2V79.18c0-3.66-0.92-6.45-2.77-8.37s-4.53-2.88-8.06-2.88c-3.91,0-6.89,1.09-8.96,3.29
				s-3.1,5.1-3.1,8.72v29.73h-12.1V36.12z"/>
			<path d="M540.47,84.48c0-3.97,0.76-7.59,2.29-10.85c1.53-3.26,3.58-6.05,6.17-8.37c2.58-2.32,5.58-4.11,9-5.39
				c3.42-1.28,7.04-1.91,10.85-1.91c3.84,0,7.42,0.64,10.73,1.91c3.31,1.28,6.18,3.07,8.63,5.39s4.36,5.09,5.74,8.32
				c1.39,3.23,2.08,6.78,2.08,10.66c0,3.97-0.73,7.58-2.17,10.83c-1.45,3.25-3.43,6.02-5.93,8.32c-2.51,2.3-5.44,4.08-8.82,5.34
				c-3.37,1.26-6.97,1.89-10.78,1.89c-3.84,0-7.46-0.64-10.85-1.91c-3.39-1.28-6.33-3.06-8.84-5.37c-2.51-2.3-4.48-5.05-5.93-8.25
				C541.2,91.89,540.47,88.35,540.47,84.48z M568.6,101.3c2.52,0,4.69-0.47,6.5-1.42c1.81-0.95,3.3-2.2,4.47-3.76
				c1.17-1.56,2.03-3.36,2.58-5.41c0.55-2.05,0.83-4.18,0.83-6.38c0-2.33-0.3-4.53-0.9-6.59c-0.6-2.06-1.51-3.88-2.72-5.44
				c-1.21-1.56-2.73-2.79-4.56-3.69c-1.83-0.9-3.99-1.35-6.48-1.35c-2.55,0-4.74,0.47-6.55,1.42c-1.81,0.95-3.29,2.21-4.42,3.81
				c-1.13,1.59-1.97,3.44-2.5,5.53c-0.54,2.1-0.8,4.31-0.8,6.64c0,2.24,0.3,4.37,0.9,6.38s1.5,3.78,2.72,5.29
				c1.21,1.51,2.73,2.72,4.54,3.62C564,100.86,566.14,101.3,568.6,101.3z"/>
		</g>
	</g>
</g>
<g>
	<g>
		<g>
			<path class="st1" d="M154.16,59.64c-15.6,0-28.32-12.72-28.32-28.32S138.55,3,154.16,3s28.32,12.72,28.32,28.32
				S169.76,59.64,154.16,59.64z M154.16,19.99c-6.26,0-11.33,5.07-11.33,11.33s5.07,11.33,11.33,11.33
				c6.26,0,11.33-5.07,11.33-11.33S160.42,19.99,154.16,19.99z"/>
		</g>
		<g>
			<path class="st1" d="M154.16,59.64c-15.6,0-28.32-12.72-28.32-28.32S138.55,3,154.16,3s28.32,12.72,28.32,28.32
				S169.76,59.64,154.16,59.64z M154.16,19.99c-6.26,0-11.33,5.07-11.33,11.33s5.07,11.33,11.33,11.33
				c6.26,0,11.33-5.07,11.33-11.33S160.42,19.99,154.16,19.99z"/>
		</g>
	</g>
	<g>
		<g>
			<path class="st2" d="M270.5,144.91c-15.63,0-28.38-12.72-28.38-28.38s12.72-28.38,28.38-28.38c15.63,0,28.38,12.72,28.38,28.38
				S286.16,144.91,270.5,144.91z M270.5,105.18c-6.26,0-11.38,5.1-11.38,11.38s5.1,11.38,11.38,11.38c6.26,0,11.38-5.1,11.38-11.38
				S276.78,105.18,270.5,105.18z"/>
		</g>
		<g>
			<path class="st2" d="M270.5,144.91c-15.63,0-28.38-12.72-28.38-28.38s12.72-28.38,28.38-28.38c15.63,0,28.38,12.72,28.38,28.38
				S286.16,144.91,270.5,144.91z M270.5,105.18c-6.26,0-11.38,5.1-11.38,11.38s5.1,11.38,11.38,11.38c6.26,0,11.38-5.1,11.38-11.38
				S276.78,105.18,270.5,105.18z"/>
		</g>
	</g>
	<g>
		<path class="st3" d="M225.89,279.38c-15.63,0-28.38-12.72-28.38-28.38c0-15.63,12.72-28.38,28.38-28.38
			c15.63,0,28.38,12.72,28.38,28.38S241.55,279.38,225.89,279.38z M225.89,239.64c-6.26,0-11.38,5.1-11.38,11.38
			c0,6.26,5.1,11.38,11.38,11.38c6.26,0,11.38-5.1,11.38-11.38S232.18,239.64,225.89,239.64z"/>
	</g>
	<g>
		<g>
			<path class="st4" d="M83.07,279.97c-15.63,0-28.38-12.72-28.38-28.38c0-15.63,12.72-28.38,28.38-28.38s28.38,12.72,28.38,28.38
				C111.42,267.26,98.71,279.97,83.07,279.97z M83.07,240.24c-6.26,0-11.38,5.1-11.38,11.38c0,6.26,5.1,11.38,11.38,11.38
				c6.29,0,11.38-5.1,11.38-11.38C94.43,245.34,89.33,240.24,83.07,240.24z"/>
		</g>
		<g>
			<path class="st4" d="M83.07,279.97c-15.63,0-28.38-12.72-28.38-28.38c0-15.63,12.72-28.38,28.38-28.38s28.38,12.72,28.38,28.38
				C111.42,267.26,98.71,279.97,83.07,279.97z M83.07,240.24c-6.26,0-11.38,5.1-11.38,11.38c0,6.26,5.1,11.38,11.38,11.38
				c6.29,0,11.38-5.1,11.38-11.38C94.43,245.34,89.33,240.24,83.07,240.24z"/>
		</g>
	</g>
	<g>
		<g>
			<path class="st3" d="M37.82,144.77c-15.66,0-28.38-12.72-28.38-28.35s12.72-28.38,28.38-28.38s28.38,12.72,28.38,28.38
				S53.45,144.77,37.82,144.77z M37.82,105.04c-6.26,0-11.38,5.1-11.38,11.38s5.1,11.38,11.38,11.38s11.38-5.1,11.38-11.38
				S44.08,105.04,37.82,105.04z"/>
		</g>
		<g>
			<path class="st3" d="M37.82,144.77c-15.66,0-28.38-12.72-28.38-28.35s12.72-28.38,28.38-28.38s28.38,12.72,28.38,28.38
				S53.45,144.77,37.82,144.77z M37.82,105.04c-6.26,0-11.38,5.1-11.38,11.38s5.1,11.38,11.38,11.38s11.38-5.1,11.38-11.38
				S44.08,105.04,37.82,105.04z"/>
		</g>
	</g>
	<g>
		<path class="st3" d="M60.53,175.7c-2.41,0-4.81-1.02-6.49-3c-3.03-3.6-2.58-8.95,1.02-11.98l34.04-28.77L68.66,48.79
			c-1.13-4.56,1.67-9.15,6.23-10.28s9.15,1.67,10.28,6.23l21.69,88.25c0.76,3.14-0.31,6.43-2.78,8.52L66,173.69
			C64.41,175.02,62.46,175.7,60.53,175.7z"/>
	</g>
	<g>
		<g>
			<path class="st4" d="M138.58,254.8c-3.34,0-6.51-1.98-7.87-5.3l-16.77-41.06l-85.41-6.29c-4.67-0.34-8.18-4.42-7.84-9.09
				s4.42-8.18,9.09-7.84l90.68,6.66c3.23,0.23,6.03,2.27,7.25,5.27l18.75,45.96c1.78,4.33-0.31,9.32-4.64,11.07
				C140.73,254.57,139.63,254.8,138.58,254.8z"/>
		</g>
		<g>
			<path class="st4" d="M138.58,254.8c-3.34,0-6.51-1.98-7.87-5.3l-16.77-41.06l-85.41-6.29c-4.67-0.34-8.18-4.42-7.84-9.09
				s4.42-8.18,9.09-7.84l90.68,6.66c3.23,0.23,6.03,2.27,7.25,5.27l18.75,45.96c1.78,4.33-0.31,9.32-4.64,11.07
				C140.73,254.57,139.63,254.8,138.58,254.8z"/>
		</g>
	</g>
	<g>
		<g>
			<path class="st3" d="M154.16,293c-1.08,0-2.15-0.2-3.2-0.62c-4.33-1.78-6.43-6.74-4.64-11.07l34.32-84.17
				c1.22-3,4.02-5.04,7.25-5.27l49.36-3.62c4.67-0.34,8.75,3.17,9.09,7.84c0.34,4.67-3.17,8.75-7.84,9.09l-44.12,3.23l-32.34,79.3
				C160.67,291.02,157.5,293,154.16,293z"/>
		</g>
		<g>
			<path class="st3" d="M154.16,293c-1.08,0-2.15-0.2-3.2-0.62c-4.33-1.78-6.43-6.74-4.64-11.07l34.32-84.17
				c1.22-3,4.02-5.04,7.25-5.27l49.36-3.62c4.67-0.34,8.75,3.17,9.09,7.84c0.34,4.67-3.17,8.75-7.84,9.09l-44.12,3.23l-32.34,79.3
				C160.67,291.02,157.5,293,154.16,293z"/>
		</g>
	</g>
	<g>
		<g>
			<path class="st2" d="M279.16,202.18c-1.93,0-3.88-0.65-5.47-2.01l-69.47-58.65c-2.46-2.1-3.54-5.38-2.78-8.52l11.87-48.29
				c1.13-4.56,5.72-7.33,10.28-6.23c4.56,1.13,7.33,5.72,6.23,10.28l-10.62,43.16l65.42,55.25c3.6,3.03,4.02,8.38,1.02,11.98
				C283.98,201.16,281.57,202.18,279.16,202.18z"/>
		</g>
		<g>
			<path class="st2" d="M279.16,202.18c-1.93,0-3.88-0.65-5.47-2.01l-69.47-58.65c-2.46-2.1-3.54-5.38-2.78-8.52l11.87-48.29
				c1.13-4.56,5.72-7.33,10.28-6.23c4.56,1.13,7.33,5.72,6.23,10.28l-10.62,43.16l65.42,55.25c3.6,3.03,4.02,8.38,1.02,11.98
				C283.98,201.16,281.57,202.18,279.16,202.18z"/>
		</g>
	</g>
	<g>
		<g>
			<path class="st1" d="M154.16,103.14c-1.56,0-3.12-0.42-4.47-1.27L107.6,75.78c-3.99-2.46-5.21-7.7-2.75-11.7
				c2.46-3.99,7.7-5.21,11.7-2.75l37.61,23.31l72.78-45.11c3.99-2.46,9.23-1.25,11.7,2.75c2.46,3.99,1.25,9.23-2.75,11.7
				l-77.26,47.89C157.27,102.72,155.71,103.14,154.16,103.14z"/>
		</g>
		<g>
			<path class="st1" d="M154.16,103.14c-1.56,0-3.12-0.42-4.47-1.27L107.6,75.78c-3.99-2.46-5.21-7.7-2.75-11.7
				c2.46-3.99,7.7-5.21,11.7-2.75l37.61,23.31l72.78-45.11c3.99-2.46,9.23-1.25,11.7,2.75c2.46,3.99,1.25,9.23-2.75,11.7
				l-77.26,47.89C157.27,102.72,155.71,103.14,154.16,103.14z"/>
		</g>
	</g>
</g>
</svg>
